<svg width="400" height="500" viewBox="0 0 400 500" xmlns="http://www.w3.org/2000/svg">
  <defs>
    <linearGradient id="g1" x1="0" y1="0" x2="1" y2="1">
      <stop offset="0%" stop-color="#a78bfa"/>
      <stop offset="100%" stop-color="#ec4899"/>
    </linearGradient>
  </defs>
  <rect width="400" height="500" fill="#111"/>
  <circle cx="200" cy="220" r="190" fill="none" stroke="url(#g1)" stroke-width="3"/>
  <ellipse cx="200" cy="330" rx="50" ry="55" fill="url(#g1)"/>
  <rect x="232" y="95" width="9" height="235" fill="url(#g1)" rx="4"/>
  <path d="M 215 160 Q 210 145 220 115" fill="none" stroke="url(#g1)" stroke-width="13" stroke-linecap="round"/>
  <path d="M 245 160 Q 250 145 240 115" fill="none" stroke="url(#g1)" stroke-width="13" stroke-linecap="round"/>
  <ellipse cx="200" cy="330" rx="43" ry="47" fill="#1e1a2e"/>
  <polygon points="168,300 155,260 175,285" fill="#7c3aed"/>
  <polygon points="232,300 245,260 225,285" fill="#be185d"/>
  <ellipse cx="183" cy="320" rx="6" ry="8" fill="#a78bfa" transform="rotate(-25 183 320)"/>
  <ellipse cx="181" cy="317" rx="2" ry="2" fill="white" transform="rotate(-25 181 317)"/>
  <ellipse cx="217" cy="320" rx="6" ry="8" fill="#ec4899" transform="rotate(25 217 320)"/>
  <ellipse cx="215" cy="317" rx="2" ry="2" fill="white" transform="rotate(25 215 317)"/>
  <path d="M 170 348 Q 200 370 230 348" fill="none" stroke="white" stroke-width="2.5" stroke-linecap="round"/>
  <polygon points="180,348 177,360 182,350" fill="white"/>
  <polygon points="220,348 223,360 218,350" fill="white"/>
  <line x1="162" y1="325" x2="140" y2="320" stroke="white" stroke-width="1.2"/>
  <line x1="162" y1="335" x2="138" y2="338" stroke="white" stroke-width="1.2"/>
  <line x1="238" y1="325" x2="260" y2="320" stroke="white" stroke-width="1.2"/>
  <line x1="238" y1="335" x2="262" y2="338" stroke="white" stroke-width="1.2"/>
  <path d="M 241 95 Q 280 105 278 145 Q 270 135 245 130 Z" fill="url(#g1)"/>
  <path d="M 241 120 Q 280 130 278 165 Q 270 155 245 152 Z" fill="url(#g1)" opacity="0.9"/>
  <line x1="80" y1="220" x2="320" y2="220" stroke="white" stroke-width="0.8" opacity="0.3"/>
  <line x1="80" y1="235" x2="320" y2="235" stroke="white" stroke-width="0.8" opacity="0.3"/>
  <line x1="80" y1="250" x2="320" y2="250" stroke="white" stroke-width="0.8" opacity="0.3"/>
</svg>
