<?xml version="1.0" standalone="no"?> <!DOCTYPE svg PUBLIC "-//W3C//DTD SVG 20010904//EN" "http://www.w3.org/TR/2001/REC-SVG-20010904/DTD/svg10.dtd"> <svg version="1.0" xmlns="http://www.w3.org/2000/svg" width="221.000000pt" height="249.000000pt" viewBox="0 0 221.000000 249.000000" preserveAspectRatio="xMidYMid meet"> <g transform="translate(0.000000,249.000000) scale(0.100000,-0.100000)" fill="#a77b00" stroke="none"> <path d="M63 2483 c37 -2 96 -2 130 0 34 2 4 3 -68 3 -72 0 -99 -1 -62 -3z"/> <path d="M260 2485 c0 -3 2 -5 5 -5 3 0 5 2 5 5 0 3 -2 5 -5 5 -3 0 -5 -2 -5 -5z"/> <path d="M648 2483 c6 -2 18 -2 25 0 6 3 1 5 -13 5 -14 0 -19 -2 -12 -5z"/> <path d="M1503 2483 c4 -3 10 -3 14 0 3 4 0 7 -7 7 -7 0 -10 -3 -7 -7z"/> <path d="M1693 2483 c59 -2 154 -2 210 0 56 1 8 3 -108 3 -115 0 -161 -2 -102 -3z"/> <path d="M2107 2483 c18 -2 50 -2 70 0 21 2 7 4 -32 4 -38 0 -55 -2 -38 -4z"/> <path d="M2193 2433 c4 -3 10 -3 14 0 3 4 0 7 -7 7 -7 0 -10 -3 -7 -7z"/> <path d="M1005 2320 l-98 -101 -271 1 -271 1 -3 -273 -2 -273 -107 -107 -108 -108 108 -108 107 -107 0 -263 0 -262 273 0 272 0 100 -100 c55 -55 104 -100 110 -100 6 0 55 45 110 100 l99 100 266 2 265 3 0 257 0 258 110 110 110 111 -110 106 -110 106 3 273 4 274 -34 0 c-18 1 -139 1 -268 0 l-236 -1 -101 101 c-56 55 -105 100 -110 100 -5 0 -54 -45 -108 -100z m195 -25 l74 -75 -77 0 -77 0 0 75 c0 41 1 75 3 75 1 0 36 -34 77 -75z m-100 -5 l0 -70 -72 0 -72 0 69 70 c38 39 71 70 72 70 2 0 3 -31 3 -70z m-269 -150 l-50 -50 -138 0 -139 0 -49 50 -49 50 237 0 237 0 -49 -50z m269 0 l0 -50 -130 0 c-71 0 -130 3 -130 7 0 4 19 27 42 50 l42 43 88 0 88 0 0 -50z m301 -21 c52 -40 115 -90 142 -111 58 -49 63 -30 5 23 l-43 38 93 1 c50 0 92 -1 92 -3 0 -2 -26 -32 -57 -66 l-58 -62 -50 42 c-27 23 -86 59 -130 80 -44 20 -88 47 -97 58 -24 29 -62 27 -82 -4 -13 -20 -25 -25 -56 -25 l-40 0 0 50 0 50 94 0 94 0 93 -71z m364 21 l-49 -50 -119 0 -119 0 -60 50 -60 50 228 0 228 0 -49 -50z m-1317 -19 l42 -50 0 -133 0 -134 -50 -49 -50 -49 0 232 c0 128 3 232 8 232 4 0 26 -22 50 -49z m1372 -183 l0 -232 -48 47 -49 48 4 142 3 142 42 42 c23 24 43 43 45 43 2 0 3 -104 3 -232z m-1060 134 c0 -8 -116 -112 -125 -112 -11 0 -115 101 -115 112 0 4 54 6 120 5 66 -1 120 -3 120 -5z m340 -43 c0 -49 0 -49 -32 -49 -66 0 -77 -8 -84 -61 -5 -40 -11 -50 -33 -58 -14 -6 -39 -18 -54 -28 -27 -18 -29 -17 -69 6 l-42 24 -34 -39 c-68 -79 -68 -79 -34 -121 l30 -38 -22 -67 c-11 -38 -26 -68 -33 -68 -26 0 -63 -24 -63 -42 0 -16 -10 -18 -114 -18 l-114 0 55 60 c31 33 63 60 72 60 42 0 58 70 21 90 -24 13 -56 5 -64 -15 -4 -10 -20 -15 -53 -15 l-48 0 132 132 133 133 45 -45 c24 -24 47 -41 50 -39 2 3 -13 23 -35 44 -52 50 -52 47 32 132 l73 73 142 -1 143 -1 0 -49z m114 26 c18 -28 52 -33 81 -11 31 22 116 -14 213 -92 l44 -35 -43 -43 -43 -44 -26 23 c-68 61 -62 59 -101 31 l-36 -25 -60 17 c-59 16 -61 18 -75 63 -10 33 -19 45 -31 43 -14 -2 -17 6 -17 48 l0 50 39 0 c30 0 42 -5 55 -25z m-644 -170 c-30 -30 -57 -55 -60 -55 -4 0 -6 52 -6 115 l0 116 60 -60 61 -61 -55 -55z m1140 50 c0 -133 0 -133 -79 -51 l-45 45 55 60 c30 32 57 59 62 60 4 0 7 -51 7 -114z m-94 -86 l51 -51 -23 -23 c-43 -43 -17 -135 38 -135 14 0 18 -8 18 -39 0 -21 3 -59 6 -85 l7 -46 -50 0 -50 0 -9 62 -9 63 -40 8 c-36 8 -44 15 -71 67 l-30 58 18 37 c11 20 17 42 15 48 -4 11 59 87 72 87 3 0 29 -23 57 -51z m-350 -58 c67 -30 114 -68 114 -93 0 -12 12 -45 27 -75 14 -30 28 -77 31 -104 l5 -49 -67 0 c-53 0 -77 5 -109 24 -23 13 -67 33 -98 46 l-56 22 3 52 c2 28 3 59 4 69 1 35 91 3 167 -59 l43 -35 0 59 0 59 -57 29 c-79 39 -207 42 -265 6 -105 -65 -114 -186 -19 -249 l34 -23 -103 0 -103 0 7 51 c31 232 240 359 442 270z m470 -58 c13 -52 -36 -82 -71 -43 -27 30 -7 70 35 70 24 0 31 -5 36 -27z m-635 -48 c5 -119 -3 -134 -45 -85 -32 39 -32 45 -1 75 27 28 45 32 46 10z m701 -2 c15 -13 18 -32 18 -115 l0 -98 -39 0 -39 0 -4 83 c-2 68 0 87 17 114 24 38 23 38 47 16z m-1262 -49 c0 -14 -21 -19 -33 -7 -9 9 13 34 24 27 5 -3 9 -12 9 -20z m-180 -89 l0 -75 -77 0 -77 0 74 75 c41 41 76 75 77 75 2 0 3 -34 3 -75z m120 62 c0 -7 -20 -33 -45 -57 l-45 -44 0 57 0 57 45 0 c30 0 45 -4 45 -13z m1461 -62 l78 -76 -82 3 -82 3 -2 73 c0 39 2 72 5 72 3 0 40 -34 83 -75z m-873 -96 l32 -11 0 -89 c0 -55 -4 -89 -10 -89 -22 0 -86 39 -132 80 l-48 42 0 -46 c0 -24 5 -48 10 -51 6 -3 10 -15 10 -25 0 -29 93 -70 178 -77 153 -13 267 79 247 197 -4 22 -11 42 -16 46 -29 17 -6 34 46 34 l55 0 0 -34 c0 -232 -290 -374 -492 -241 -21 14 -44 25 -53 25 -34 0 -57 38 -41 68 12 23 12 30 0 55 -14 27 -34 113 -28 120 8 8 213 5 242 -4z m618 2 c40 -2 -7 -193 -52 -213 -50 -23 -34 -98 21 -98 37 0 66 66 36 84 -5 4 -1 24 10 45 10 22 24 71 31 110 l12 71 38 0 38 0 0 -100 0 -100 -112 -115 c-62 -63 -118 -115 -124 -115 -7 0 -30 19 -51 43 -38 43 -63 64 -63 52 0 -3 23 -31 52 -61 l52 -55 -54 -54 -53 -53 -173 -2 -174 -1 0 45 c0 49 8 56 70 56 43 0 55 11 64 60 5 29 15 40 56 63 l51 27 40 -22 40 -23 49 55 c58 65 57 62 24 105 l-26 34 20 58 c18 51 24 59 54 66 18 5 41 17 50 27 10 10 25 17 35 15 10 -2 27 -4 39 -4z m-1326 -77 c0 -89 3 -89 -84 4 l-68 72 76 0 76 0 0 -76z m276 26 c6 -49 7 -49 50 -56 63 -9 112 -101 83 -155 -24 -45 -26 -39 37 -93 l55 -48 39 27 39 27 58 -19 c52 -18 59 -24 72 -59 9 -21 19 -40 23 -42 19 -8 9 -92 -11 -92 -11 0 -22 8 -26 18 -13 43 -82 45 -104 3 -13 -23 -6 -47 21 -77 29 -32 21 -78 -14 -82 -28 -3 -138 64 -213 129 -39 34 -49 95 -20 119 18 15 20 51 3 68 -17 17 -67 15 -74 -3 -8 -20 -63 -19 -86 2 -24 21 -26 144 -3 163 30 25 3 80 -40 80 -41 0 -67 -72 -30 -86 10 -4 15 -20 15 -47 l0 -41 -60 59 -60 59 0 98 0 98 120 0 119 0 7 -50z m1327 -2 c-28 -29 -61 -65 -74 -80 -39 -47 -40 -41 -30 115 1 15 12 17 78 17 l77 0 -51 -52z m-740 -26 c48 -42 8 -110 -67 -115 l-37 -2 0 83 c0 45 0 84 1 87 0 8 81 -34 103 -53z m-733 -383 l0 -121 -42 -44 c-23 -24 -46 -44 -50 -44 -4 0 -8 98 -8 218 l0 217 50 -53 50 -52 0 -121z m1330 -1 l0 -213 -45 45 -44 45 -2 123 -1 124 43 44 c24 24 44 44 46 44 2 0 3 -96 3 -212z m-111 0 l-1 -103 -50 54 -49 54 47 48 c27 27 50 49 52 49 1 0 2 -46 1 -102z m-1150 -44 c-24 -24 -44 -43 -45 -41 -5 5 -10 153 -6 167 4 10 18 0 49 -35 l44 -48 -42 -43z m151 92 c0 -8 -4 -17 -8 -20 -13 -8 -35 11 -28 23 10 16 36 14 36 -3z m-47 -36 c17 -21 23 -50 10 -50 -5 0 -21 16 -36 35 -32 40 -8 54 26 15z m982 -70 l49 -50 -99 0 -99 0 49 50 c27 28 50 50 50 50 0 0 23 -22 50 -50z m-985 -5 l44 -45 -88 0 -89 0 39 44 c48 55 41 55 94 1z m365 -40 c0 -13 -8 -21 -22 -23 -19 -3 -23 1 -23 23 0 22 4 26 23 23 14 -2 22 -10 22 -23z m-234 -76 c38 -28 69 -52 69 -53 0 -2 -150 -1 -320 2 l-134 2 49 50 49 50 109 0 110 0 68 -51z m309 -4 l0 -55 -40 0 c-39 0 -40 1 -40 37 0 41 24 72 58 72 20 1 22 -3 22 -54z m122 8 c62 -61 61 -63 -27 -63 l-75 0 0 55 c0 75 32 77 102 8z m150 -5 l-52 -53 -52 53 -53 52 105 0 105 0 -53 -52z m391 2 l50 -50 -104 -1 c-57 0 -157 -3 -221 -5 -66 -2 -118 0 -118 5 0 5 23 30 52 55 l52 46 119 0 119 0 51 -50z m-495 -105 c-7 -6 -43 -40 -80 -75 l-68 -63 0 76 0 76 63 3 c80 4 103 -1 85 -17z m-168 -55 c0 -38 -1 -70 -3 -70 -1 0 -34 32 -72 70 l-69 70 72 0 72 0 0 -70z"/> <path d="M1320 296 l0 -206 40 0 40 0 -2 203 -3 202 -37 3 -38 3 0 -205z"/> <path d="M715 468 c-82 -64 -56 -165 53 -203 81 -27 105 -69 58 -100 -28 -18 -64 -12 -94 15 -27 26 -86 -16 -62 -44 76 -93 255 -45 255 68 0 56 -20 79 -108 121 -51 24 -63 35 -65 57 -6 47 55 60 99 21 15 -12 20 -11 43 10 33 31 33 33 -6 57 -47 28 -136 27 -173 -2z"/> <path d="M1472 478 c-19 -19 -14 -46 12 -63 43 -29 80 8 60 59 -7 19 -55 21 -72 4z"/> <path d="M1055 366 c-109 -50 -116 -218 -10 -262 177 -74 305 135 153 249 -33 25 -104 31 -143 13z m114 -82 c28 -36 27 -79 -4 -109 -68 -68 -164 32 -104 109 28 36 80 36 108 0z"/> <path d="M1470 230 l0 -140 40 0 40 0 0 140 0 140 -40 0 -40 0 0 -140z"/> </g> </svg>