<?xml version="1.0" standalone="no"?>
<!DOCTYPE svg PUBLIC "-//W3C//DTD SVG 20010904//EN"
 "http://www.w3.org/TR/2001/REC-SVG-20010904/DTD/svg10.dtd">
<svg version="1.0" xmlns="http://www.w3.org/2000/svg"
 width="220.000000pt" height="210.000000pt" viewBox="0 0 220.000000 210.000000"
 preserveAspectRatio="xMidYMid meet">
<g transform="translate(0.000000,210.000000) scale(0.100000,-0.100000)"
fill="#000000" stroke="none">
<path d="M1005 1920 l-98 -100 -273 0 -274 0 0 -270 0 -269 -108 -105 -107
-105 107 -108 108 -108 2 -255 3 -255 268 0 267 -1 105 -104 c58 -57 107 -101
109 -99 3 2 50 49 106 104 l102 100 261 0 262 0 3 255 2 255 108 108 107 109
-109 104 -109 104 2 270 2 270 -268 0 -268 0 -100 100 c-55 55 -102 100 -105
100 -4 0 -50 -45 -105 -100z m95 -30 l0 -70 -72 0 -72 0 69 70 c38 39 71 70
72 70 2 0 3 -31 3 -70z m169 -67 c2 -2 -30 -3 -72 -3 l-77 0 0 72 0 72 72 -69
c40 -39 74 -71 77 -72z m-441 -83 l-53 -49 -135 -1 -136 0 -49 50 -49 50 238
0 237 0 -53 -50z m272 0 l0 -50 -137 0 -137 0 49 50 49 50 88 0 88 0 0 -50z
m297 -22 c54 -39 115 -86 136 -105 20 -18 43 -33 50 -33 6 1 -10 21 -38 45
l-49 45 98 0 99 0 -63 -64 -64 -65 -45 38 c-61 49 -91 67 -151 91 -28 11 -61
32 -74 47 -26 30 -74 26 -83 -7 -4 -16 -14 -20 -49 -20 l-44 0 0 50 0 50 90 0
90 0 97 -72z m358 22 l-49 -50 -118 0 -118 0 -58 46 c-31 26 -59 48 -61 50 -2
2 99 4 224 4 l229 0 -49 -50z m-1311 -17 l46 -48 0 -135 0 -134 -42 -43 c-23
-24 -45 -43 -48 -43 -3 0 -5 101 -5 225 0 124 1 225 2 225 1 0 22 -21 47 -47z
m1366 -180 l0 -227 -45 44 -45 44 0 134 0 133 42 50 c22 27 43 49 45 49 1 0 3
-102 3 -227z m-1112 70 l-57 -57 -60 57 -60 57 117 0 117 0 -57 -57z m402 12
l0 -45 -50 0 c-54 0 -70 -17 -70 -73 0 -17 -14 -29 -56 -51 l-55 -29 -42 20
-41 20 -48 -56 c-57 -66 -55 -58 -20 -105 l28 -38 -20 -60 c-17 -53 -24 -61
-58 -75 -25 -10 -38 -21 -38 -34 0 -18 -9 -19 -117 -19 l-117 0 58 59 c33 34
70 61 86 65 45 8 48 65 5 84 -19 9 -28 7 -48 -9 -16 -12 -41 -19 -68 -19 l-42
0 24 26 c13 14 72 71 131 126 l108 100 46 -41 c62 -54 71 -43 13 15 l-45 45
70 69 71 70 148 0 147 0 0 -45z m120 25 c23 -23 53 -26 69 -6 21 26 164 -40
223 -101 l28 -29 -38 -37 -38 -37 -41 35 c-49 42 -53 42 -90 11 l-29 -24 -64
21 c-59 21 -64 25 -78 65 -7 23 -20 42 -28 42 -10 0 -14 12 -14 40 l0 40 40 0
c27 0 47 -7 60 -20z m-653 -167 l-57 -58 0 115 0 115 57 -58 58 -57 -58 -57z
m1133 50 l0 -117 -60 59 -60 59 57 58 c32 32 59 58 60 58 2 0 3 -53 3 -117z
m-59 -152 c-46 -46 -29 -126 29 -138 l30 -5 0 -79 0 -79 -44 0 c-49 0 -56 10
-56 83 0 36 -2 38 -45 49 -41 11 -49 19 -75 66 l-29 54 20 39 c11 22 17 44 13
50 -3 6 11 28 32 50 l38 39 54 -54 54 -54 -21 -21z m-381 20 c73 -28 123 -68
116 -94 -3 -12 3 -32 15 -48 26 -37 49 -104 49 -145 l0 -34 -64 0 c-49 0 -74
5 -103 23 -21 12 -65 33 -98 47 -33 14 -60 31 -59 38 1 7 2 37 3 67 1 45 4 55
19 55 28 0 116 -45 156 -80 l37 -33 -3 59 -3 59 -55 30 c-108 59 -269 34 -325
-51 -43 -67 -23 -151 47 -194 l33 -20 -102 0 c-116 0 -110 -5 -92 82 45 212
230 315 429 239z m472 -66 c10 -22 9 -29 -9 -46 -26 -26 -60 -18 -69 17 -13
52 56 77 78 29z m-632 -90 c0 -73 -7 -78 -44 -34 -32 38 -32 44 -1 74 37 38
45 32 45 -40z m710 -67 l0 -98 -40 0 -40 0 0 79 c0 97 30 162 63 133 14 -12
17 -32 17 -114z m-1266 61 c-8 -14 -34 -11 -34 4 0 8 3 17 7 20 9 9 34 -13 27
-24z m-184 -84 l0 -75 -77 0 -77 0 74 75 c41 41 76 75 77 75 2 0 3 -34 3 -75z
m120 62 c0 -7 -20 -33 -45 -57 l-45 -44 0 57 0 57 45 0 c30 0 45 -4 45 -13z
m1450 -62 l74 -75 -82 0 -83 0 2 75 c2 41 6 75 9 75 3 0 39 -34 80 -75z
m-1570 -173 l0 -76 -75 74 -76 75 68 5 c88 7 83 11 83 -78z m274 31 c8 -51 9
-51 52 -58 39 -5 45 -11 72 -58 l30 -52 -20 -40 -20 -39 53 -48 c63 -56 62
-55 105 -23 l33 25 58 -19 c51 -17 60 -24 73 -58 8 -21 18 -39 22 -41 19 -8 9
-92 -11 -92 -11 0 -22 8 -26 18 -14 46 -85 44 -106 -2 -12 -26 9 -76 31 -76 6
0 10 -16 10 -35 0 -34 -1 -35 -39 -35 -38 0 -145 65 -218 133 -27 25 -31 87
-7 107 24 21 14 63 -18 74 -21 8 -32 6 -46 -7 -24 -22 -70 -22 -94 0 -25 22
-26 128 -1 155 28 31 7 73 -37 73 -46 0 -65 -42 -34 -76 14 -16 29 -89 18 -89
-1 0 -30 28 -63 63 l-61 62 2 82 c1 46 4 87 8 93 4 7 173 19 215 15 6 -1 14
-24 19 -52z m442 47 c23 -9 24 -14 24 -95 0 -52 -4 -85 -10 -85 -23 0 -78 30
-127 69 l-53 41 0 -38 c0 -93 70 -143 213 -150 162 -9 273 102 223 222 -9 21
-16 40 -16 42 0 2 25 4 56 4 l57 0 -6 -50 c-27 -228 -284 -345 -482 -219 -25
16 -54 29 -63 29 -36 0 -57 51 -31 77 8 8 6 19 -5 41 -16 31 -36 108 -30 115
8 8 228 5 250 -3z m596 0 l31 0 -7 -51 c-10 -76 -42 -152 -68 -164 -34 -15
-36 -59 -4 -80 41 -27 103 32 69 66 -7 7 -3 33 13 77 13 37 24 86 24 110 l0
42 40 0 40 0 0 -98 0 -97 -115 -115 -115 -114 -54 53 -55 54 35 43 36 43 -28
36 -27 36 19 55 c16 49 24 57 61 74 24 10 43 24 43 31 0 6 7 8 16 5 9 -3 29
-6 46 -6z m328 -3 c0 -1 -35 -38 -79 -81 l-78 -78 2 69 c1 37 3 74 3 81 2 10
152 20 152 9z m-822 -41 c81 -41 88 -109 15 -137 -64 -24 -75 -13 -76 79 -2
92 -4 91 61 58z m-732 -242 l44 -45 0 -123 0 -122 -45 -44 -45 -44 -1 164 c0
91 -3 186 -5 213 -6 58 -2 58 52 1z m1364 -166 l0 -212 -45 44 -45 44 0 125 0
125 42 43 c23 24 43 43 45 43 2 0 3 -95 3 -212z m-405 122 c22 -14 32 -16 42
-8 15 12 56 -20 95 -75 l21 -29 -51 -51 -51 -52 -171 -3 -170 -3 0 45 0 45 48
6 c26 3 54 7 62 8 9 1 18 19 23 47 13 70 95 108 152 70z m291 -207 c-3 -3 -25
17 -50 43 l-45 49 47 48 47 48 3 -92 c1 -50 1 -94 -2 -96z m-1096 82 c0 -6
-20 -31 -45 -55 l-45 -44 0 99 0 99 45 -44 c25 -24 45 -49 45 -55z m110 51 c0
-8 -5 -18 -11 -22 -14 -8 -33 11 -25 25 10 16 36 13 36 -3z m-49 -37 c35 -35
20 -57 -18 -25 -18 15 -33 32 -33 37 0 16 30 9 51 -12z m974 -69 l49 -50 -99
0 -99 0 49 50 c27 28 50 50 50 50 0 0 23 -22 50 -50z m-966 -11 l33 -39 -88 0
-88 0 43 44 c49 50 53 50 100 -5z m356 -34 c0 -13 -8 -21 -22 -23 -23 -3 -33
25 -16 42 13 13 38 1 38 -19z m-230 -75 l69 -50 -229 0 -229 0 49 50 49 50
111 0 111 0 69 -50z m305 -6 c0 -54 -1 -56 -22 -50 -13 3 -31 6 -40 6 -47 0
-8 98 40 99 20 1 22 -3 22 -55z m125 6 l49 -50 -77 0 -77 0 0 50 c0 48 1 50
28 50 20 0 41 -14 77 -50z m195 47 c0 -2 -24 -24 -54 -49 l-53 -47 -49 50 -48
49 102 0 c56 0 102 -1 102 -3z m334 -47 l47 -49 -221 -3 c-121 -2 -220 -2
-220 -1 0 1 24 24 53 52 l52 51 121 0 121 0 47 -50z m-654 -157 l0 -77 -75 74
c-41 41 -75 76 -75 77 0 2 34 3 75 3 l75 0 0 -77z m180 72 c0 -1 -36 -36 -80
-79 l-80 -79 0 82 0 82 80 -3 c44 -1 80 -2 80 -3z"/>
<path d="M2080 1999 c0 -5 9 -9 20 -9 11 0 20 2 20 4 0 2 -9 6 -20 9 -11 3
-20 1 -20 -4z"/>
</g>
</svg>
