<?xml version="1.0" standalone="no"?>
<!DOCTYPE svg PUBLIC "-//W3C//DTD SVG 20010904//EN"
 "http://www.w3.org/TR/2001/REC-SVG-20010904/DTD/svg10.dtd">
<svg version="1.0" xmlns="http://www.w3.org/2000/svg"
 width="223.000000pt" height="240.000000pt" viewBox="0 0 223.000000 240.000000"
 preserveAspectRatio="xMidYMid meet">
<g transform="translate(0.000000,240.000000) scale(0.100000,-0.100000)"
fill="#000000" stroke="none">
<path d="M1020 2289 l-95 -98 -280 -3 -280 -3 3 -266 2 -266 -111 -108 -111
-108 112 -112 111 -111 -2 -245 c-1 -134 -1 -250 0 -256 1 -10 63 -13 273 -13
l273 0 105 -104 105 -104 110 104 110 104 262 0 263 0 0 258 0 258 110 109
c61 59 110 110 110 112 0 1 -50 51 -110 110 l-111 106 1 266 1 266 -273 3
-274 2 -99 100 c-55 55 -102 99 -105 99 -3 -1 -48 -46 -100 -100z m90 -29 l0
-70 -72 0 -72 0 69 70 c38 39 71 70 72 70 2 0 3 -31 3 -70z m99 2 c39 -37 71
-69 71 -72 0 -3 -34 -4 -75 -2 l-75 4 0 69 c0 38 2 69 4 69 2 0 36 -30 75 -68z
m-374 -157 l-49 -45 -141 0 -141 0 -44 45 -44 45 234 0 235 -1 -50 -44z m275
0 l0 -45 -137 0 -137 0 44 45 44 45 93 0 93 0 0 -45z m302 -16 c45 -34 106
-81 134 -105 66 -55 81 -44 17 13 l-48 42 100 1 99 0 -63 -64 -64 -64 -61 45
c-64 48 -150 93 -177 93 -9 0 -24 11 -33 25 -21 32 -70 34 -88 5 -10 -15 -24
-20 -55 -20 l-43 0 0 45 0 45 99 0 99 0 84 -61z m368 16 l-44 -45 -125 0 -124
0 -46 37 c-25 20 -50 40 -55 45 -6 4 91 8 214 8 l224 0 -44 -45z m-1290 -198
l0 -138 -45 -47 -45 -47 1 235 0 235 44 -50 45 -49 0 -139z m1350 2 l0 -232
-49 44 -49 44 -1 135 -1 135 47 53 c25 28 48 52 50 52 2 0 3 -104 3 -231z
m-1071 129 c-3 -2 -32 -29 -65 -61 l-60 -57 -59 60 -59 60 123 0 c69 0 122 -1
120 -2z m341 -42 c0 -46 -15 -56 -86 -56 -20 0 -24 -6 -30 -47 -6 -46 -9 -49
-65 -77 l-58 -29 -37 22 c-34 20 -39 21 -53 7 -14 -15 -20 -12 -63 31 l-48 47
72 73 72 73 148 0 148 0 0 -44z m120 24 c11 -21 64 -28 75 -10 16 26 145 -29
220 -94 l40 -35 -40 -40 -40 -41 -49 40 -49 40 -34 -26 c-35 -26 -35 -26 -85
-10 -28 9 -56 16 -63 16 -7 0 -18 20 -25 45 -9 33 -18 45 -31 45 -16 0 -19 8
-19 45 l0 45 45 0 c34 0 47 -5 55 -20z m-650 -55 l55 -55 -63 -63 -62 -62 0
118 c0 64 4 117 8 117 4 0 32 -25 62 -55z m1140 -61 l0 -115 -59 53 -59 53 56
61 c31 34 58 62 60 63 1 0 2 -51 2 -115z m-1007 -72 l47 -48 -34 -33 -35 -34
30 -42 30 -42 -17 -61 c-16 -57 -19 -61 -60 -77 -32 -12 -44 -22 -44 -37 0
-16 -5 -19 -22 -14 -13 3 -62 6 -109 6 l-86 0 50 53 c28 28 64 57 81 62 27 9
31 15 31 45 0 44 -42 65 -73 37 -12 -11 -35 -17 -63 -17 l-44 1 130 124 c72
69 132 125 135 125 3 0 27 -22 53 -48z m934 -25 l41 -39 -26 -23 c-49 -42 -18
-145 44 -145 11 0 14 -17 14 -80 l0 -81 -44 2 -45 3 -8 60 -8 60 -43 11 c-38
9 -46 16 -73 65 l-30 55 20 38 c12 22 18 43 15 49 -4 5 11 27 32 49 42 43 39
44 111 -24z m-400 -32 c76 -22 148 -74 148 -105 0 -14 7 -37 16 -51 23 -35 49
-114 49 -149 l0 -30 -63 0 c-52 0 -74 6 -118 30 -30 16 -75 37 -101 46 l-48
16 0 69 c0 67 1 69 25 69 38 0 84 -22 143 -69 l53 -42 -3 57 c-3 57 -4 59 -48
86 -120 74 -279 50 -347 -51 -41 -61 -21 -141 46 -187 l36 -24 -104 0 -104 0
7 58 c25 212 211 337 413 277z m501 -57 c7 -7 12 -21 12 -33 0 -12 -5 -26 -12
-33 -7 -7 -21 -12 -33 -12 -12 0 -26 5 -33 12 -7 7 -12 21 -12 33 0 12 5 26
12 33 7 7 21 12 33 12 12 0 26 -5 33 -12z m-638 -113 c0 -63 -1 -65 -20 -55
-52 28 -58 83 -12 109 29 18 32 13 32 -54z m714 46 c14 -15 16 -35 14 -112
l-3 -93 -40 0 -40 -1 -3 82 c-2 72 0 85 18 103 11 11 20 25 20 30 0 16 15 12
34 -9z m-1278 -32 c10 -17 -13 -36 -27 -22 -12 12 -4 33 11 33 5 0 12 -5 16
-11z m-176 -94 l0 -75 -77 0 -77 0 74 75 c41 41 76 75 77 75 2 0 3 -34 3 -75z
m119 60 c3 -3 -16 -27 -42 -53 l-47 -47 0 58 0 57 42 -5 c23 -3 44 -8 47 -10z
m1505 -99 l40 -36 -62 -1 c-34 -1 -70 -2 -79 -3 -16 -1 -18 10 -21 79 l-3 80
43 -42 c24 -23 61 -58 82 -77z m-1624 -136 c0 -44 -3 -80 -7 -80 -6 0 -153
151 -153 157 0 2 36 3 80 3 l80 0 0 -80z m270 36 c0 -50 10 -61 62 -70 32 -6
41 -14 66 -60 l29 -53 -21 -37 -21 -37 55 -49 c64 -58 62 -57 105 -25 l33 26
61 -18 c34 -10 61 -22 61 -26 0 -4 9 -27 20 -49 41 -84 17 -154 -32 -93 -24
30 -61 32 -88 5 -26 -26 -25 -42 5 -78 39 -47 35 -92 -8 -92 -35 0 -147 70
-214 133 -37 35 -45 87 -17 114 41 41 -21 109 -64 70 -22 -20 -85 -22 -101 -4
-19 23 -16 135 4 157 22 24 14 65 -16 80 -46 25 -92 -46 -54 -84 8 -8 15 -32
15 -52 l0 -38 -60 60 -60 59 0 103 0 102 120 0 120 0 0 -44z m444 34 c25 -9
26 -12 26 -95 0 -47 -4 -85 -9 -85 -24 0 -71 25 -123 66 l-58 45 0 -40 c0 -22
5 -43 10 -46 6 -3 10 -14 10 -24 0 -11 21 -27 61 -47 130 -61 297 -31 353 65
24 41 24 109 1 145 l-17 26 62 0 63 0 -7 -46 c-32 -234 -296 -350 -498 -218
-21 13 -44 24 -52 24 -7 0 -24 9 -37 19 -23 19 -23 21 -8 47 15 25 15 30 -1
68 -10 23 -21 56 -25 74 l-7 32 116 0 c63 0 126 -4 140 -10z m632 -37 c-12
-92 -37 -153 -68 -169 -54 -28 -25 -105 35 -90 30 7 43 37 28 65 -8 14 -6 30
10 65 11 26 23 75 27 109 l7 62 43 3 42 3 0 -98 0 -98 -120 -120 -120 -120
-56 56 -56 56 36 41 37 41 -26 40 -27 39 18 55 c15 50 21 56 57 68 21 7 41 19
44 26 3 8 22 13 50 13 l46 0 -7 -47z m314 43 c0 -5 -151 -156 -157 -156 -1 0
-3 36 -3 80 l0 80 80 0 c44 0 80 -2 80 -4z m-828 -52 c92 -47 60 -144 -47
-144 -25 0 -25 1 -25 86 0 95 0 94 72 58z m638 -406 l-1 -223 -49 54 -50 55 0
119 0 120 48 47 c26 27 48 49 50 49 1 1 2 -99 2 -221z m-1349 4 l1 -124 -45
-51 -46 -52 0 220 -1 220 45 -45 44 -45 2 -123z m923 127 c20 -11 43 -18 54
-15 13 5 28 -5 53 -31 69 -77 68 -68 8 -129 l-53 -54 -173 0 -173 0 0 45 c0
48 2 49 95 57 27 3 31 7 39 48 8 42 13 48 60 71 28 14 52 27 53 27 1 1 18 -7
37 -19z m306 -128 l0 -100 -50 52 -49 52 47 48 c25 26 48 47 49 47 2 0 3 -45
3 -99z m-1156 42 c49 -53 49 -54 -10 -106 l-42 -37 -1 95 c-1 52 1 95 3 95 3
0 25 -21 50 -47z m156 3 c0 -20 -19 -31 -32 -18 -6 6 -7 15 -4 21 10 16 36 13
36 -3z m-47 -44 c9 -8 17 -24 17 -36 0 -17 -4 -16 -35 14 -50 48 -35 67 18 22z
m985 -64 l51 -53 -101 3 -101 3 49 50 c26 27 49 49 49 49 0 0 24 -24 53 -52z
m-948 -48 c0 -4 -40 -6 -90 -6 l-90 1 47 47 47 48 43 -42 c24 -23 43 -45 43
-48z m328 2 c4 -26 -22 -40 -43 -22 -11 9 -12 17 -4 32 13 25 43 19 47 -10z
m-232 -78 c35 -25 64 -48 64 -50 0 -3 -101 -4 -225 -4 -124 1 -225 4 -225 6 0
3 18 25 41 49 46 49 54 51 187 47 94 -2 94 -2 158 -48z m304 1 l0 -55 -40 0
c-39 0 -40 1 -40 36 0 38 29 73 63 74 14 0 17 -9 17 -55z m130 0 l54 -55 -82
0 -82 0 0 55 c0 53 1 55 28 55 20 0 42 -15 82 -55z m196 46 c-4 -5 -29 -28
-56 -51 l-50 -42 -51 51 -50 51 106 0 c61 0 104 -4 101 -9z m344 -46 l54 -55
-229 0 -229 0 54 55 54 55 121 0 121 0 54 -55z m-670 -157 l0 -72 -72 69 c-40
39 -74 71 -77 73 -2 1 30 2 72 2 l77 0 0 -72z m130 16 c-30 -30 -67 -65 -82
-75 l-28 -20 0 75 0 76 82 0 82 0 -54 -56z"/>
<path d="M763 459 c-46 -13 -83 -62 -83 -108 0 -53 29 -86 98 -111 78 -29 100
-60 66 -94 -22 -22 -66 -20 -99 5 l-27 22 -26 -27 -27 -27 25 -19 c113 -89
283 -9 240 112 -15 41 -34 55 -125 96 -34 14 -40 22 -40 47 0 41 42 57 85 32
32 -19 86 0 77 27 -11 34 -110 61 -164 45z"/>
<path d="M1330 271 l0 -201 40 0 40 0 -2 197 -3 198 -37 3 -38 3 0 -200z"/>
<path d="M1491 454 c-44 -32 -5 -98 45 -76 20 10 25 18 22 43 -4 39 -35 55
-67 33z"/>
<path d="M1054 331 c-113 -69 -96 -228 29 -262 144 -39 256 130 154 232 -52
53 -126 65 -183 30z m131 -74 c36 -51 0 -127 -59 -127 -57 0 -93 67 -62 116
31 46 93 51 121 11z"/>
<path d="M1480 211 l0 -141 40 0 41 0 -3 138 -3 137 -37 3 -38 3 0 -140z"/>
</g>
</svg>
