<?xml version="1.0" standalone="no"?> <!DOCTYPE svg PUBLIC "-//W3C//DTD SVG 20010904//EN" "http://www.w3.org/TR/2001/REC-SVG-20010904/DTD/svg10.dtd"> <svg version="1.0" xmlns="http://www.w3.org/2000/svg" width="229.000000pt" height="249.000000pt" viewBox="0 0 229.000000 249.000000" preserveAspectRatio="xMidYMid meet"> <g transform="translate(0.000000,249.000000) scale(0.100000,-0.100000)" fill="#a77b00" stroke="none"> <path d="M37 2483 c24 -2 62 -2 85 0 24 2 5 4 -42 4 -47 0 -66 -2 -43 -4z"/> <path d="M210 2485 c0 -3 2 -5 5 -5 3 0 5 2 5 5 0 3 -2 5 -5 5 -3 0 -5 -2 -5 -5z"/> <path d="M240 2485 c0 -3 2 -5 5 -5 3 0 5 2 5 5 0 3 -2 5 -5 5 -3 0 -5 -2 -5 -5z"/> <path d="M578 2483 c12 -2 32 -2 45 0 12 2 2 4 -23 4 -25 0 -35 -2 -22 -4z"/> <path d="M1658 2483 c34 -2 90 -2 125 0 34 2 6 3 -63 3 -69 0 -97 -1 -62 -3z"/> <path d="M2073 2483 c43 -2 110 -2 150 0 40 1 5 3 -78 3 -82 0 -115 -2 -72 -3z"/> <path d="M1045 2330 l-109 -110 -361 -2 -360 -3 0 -352 0 -352 -33 -34 -33 -34 35 -39 36 -39 -5 -305 c-3 -168 -2 -313 1 -322 5 -17 31 -18 353 -18 l347 0 44 -46 c25 -25 80 -77 123 -116 l77 -70 44 36 c24 20 81 71 127 113 l82 78 336 5 336 5 3 325 2 324 32 33 32 33 -33 34 -32 33 1 357 1 356 -358 0 -358 0 -110 110 -110 110 -110 -110z m102 -107 c-3 -2 -39 -3 -82 -1 l-78 3 79 78 79 77 3 -76 c2 -42 1 -78 -1 -81z m143 37 l45 -39 -82 -1 -83 0 0 83 1 82 37 -43 c20 -23 57 -60 82 -82z m-440 -125 l-54 -55 -216 0 c-240 1 -217 -5 -294 78 l-30 32 324 0 324 0 -54 -55z m300 0 l0 -55 -151 0 c-170 0 -166 -4 -84 72 l40 37 98 1 97 0 0 -55z m284 3 c39 -29 104 -79 144 -111 80 -64 115 -69 42 -6 l-45 38 170 1 170 0 -99 -99 -99 -100 -69 64 c-73 68 -126 101 -205 131 -26 10 -60 31 -75 46 -32 34 -42 35 -74 3 -20 -20 -35 -25 -77 -25 l-52 0 3 55 4 55 95 0 96 0 71 -52z m556 -3 l-54 -55 -193 0 -193 0 -58 46 c-31 26 -61 50 -66 55 -6 5 122 9 304 9 l314 0 -54 -55z m-1640 -280 l0 -211 -50 -49 c-36 -36 -50 -45 -51 -32 -1 21 -1 -2 0 333 l1 275 50 -53 49 -53 1 -210z m1702 -8 l3 -307 -52 52 -53 52 0 211 0 210 46 48 c26 26 48 46 50 44 2 -1 4 -141 6 -310z m-1374 116 l-98 -98 -97 98 -97 97 194 0 195 0 -97 -97z m472 52 l0 -44 -50 -7 c-42 -6 -51 -10 -55 -30 -3 -13 -7 -34 -10 -46 -3 -15 -23 -33 -60 -53 l-56 -30 -40 23 c-23 13 -42 22 -43 20 -1 -2 -23 -28 -49 -59 l-47 -56 31 -39 c21 -27 28 -44 24 -59 -4 -11 -12 -39 -18 -62 -10 -36 -17 -44 -54 -58 -30 -12 -43 -22 -43 -36 0 -18 -9 -19 -137 -19 l-137 0 57 58 c32 32 72 62 89 67 17 6 35 20 39 31 16 46 -50 86 -81 49 -8 -10 -30 -15 -60 -15 l-48 0 71 68 c39 37 81 78 93 92 l23 25 65 -64 c36 -36 68 -63 70 -60 3 3 -23 34 -59 69 l-64 63 112 108 112 108 163 1 162 0 0 -45z m130 35 c0 -27 47 -41 83 -24 34 16 35 16 108 -19 69 -33 219 -149 219 -169 0 -22 -153 -160 -161 -146 -12 18 -11 22 8 64 l18 37 -60 53 -59 53 -32 -24 c-39 -30 -42 -30 -110 -8 -49 15 -55 21 -70 60 -13 34 -22 43 -40 43 -21 0 -28 40 -15 88 2 7 111 0 111 -8z m-773 -254 c-34 -32 -79 -75 -99 -94 l-38 -36 0 188 0 188 99 -94 100 -93 -62 -59z m1421 -33 l-3 -98 -57 55 c-31 30 -75 70 -98 89 l-42 34 99 99 98 98 3 -89 c1 -50 1 -134 0 -188z m-190 31 c2 -1 -8 -13 -22 -27 -44 -45 -18 -137 39 -137 12 0 15 -15 15 -85 l0 -85 -49 0 -49 0 -7 64 -6 64 -40 7 c-31 5 -45 15 -60 38 l-19 32 83 76 c66 63 85 75 97 66 8 -6 16 -12 18 -13z m-446 -4 c76 -23 150 -73 146 -98 -1 -9 10 -42 25 -73 15 -30 30 -79 34 -107 l6 -52 -67 0 c-53 0 -77 5 -109 24 -23 13 -68 34 -99 47 l-58 23 0 68 c0 64 1 68 23 68 33 -1 105 -36 154 -76 l44 -36 -3 58 -3 58 -58 30 c-99 51 -220 46 -287 -10 -81 -69 -80 -180 2 -233 l33 -21 -99 0 -98 0 4 58 c15 206 209 334 410 272z m512 -56 c15 -39 -5 -74 -43 -74 -22 0 -43 47 -31 69 13 26 65 29 74 5z m-647 -115 c2 -65 -2 -69 -41 -38 -34 27 -34 62 1 88 33 27 37 22 40 -50z m736 36 c37 -35 37 -36 37 -115 l0 -80 -59 0 -58 0 -6 87 c-4 78 -3 89 14 101 10 7 19 20 19 28 0 21 11 17 53 -21z m-1335 -22 c-5 -25 -28 -28 -28 -4 0 12 6 21 16 21 9 0 14 -7 12 -17z m-58 -21 c0 -4 -29 -39 -65 -77 l-65 -70 0 78 0 77 65 0 c36 0 65 -4 65 -8z m-150 -87 l0 -65 -49 0 c-70 0 -73 20 -14 81 61 62 63 62 63 -16z m1664 15 c57 -61 55 -74 -12 -78 l-52 -3 0 65 c0 79 4 80 64 16z m-1794 -75 c0 -3 -2 -5 -5 -5 -3 0 -5 2 -5 5 0 3 2 5 5 5 3 0 5 -2 5 -5z m911 -25 c23 -13 30 -180 7 -180 -21 0 -111 56 -137 84 -32 34 -41 33 -41 -4 0 -167 326 -222 427 -71 27 40 31 107 8 151 l-16 30 62 0 62 0 -6 -49 c-26 -217 -259 -332 -468 -230 -41 20 -86 41 -101 47 -30 12 -34 28 -17 65 9 19 7 31 -5 55 -8 16 -18 48 -22 71 l-7 41 117 0 c65 0 126 -5 137 -10z m636 -37 c-9 -76 -46 -161 -70 -165 -55 -8 -37 -98 18 -98 32 0 46 21 44 71 -1 24 8 71 20 104 11 33 23 77 26 98 l6 38 57 -3 57 -3 3 -95 3 -95 -126 -125 c-69 -69 -128 -127 -131 -129 -5 -6 -134 120 -134 131 0 4 14 23 31 43 l31 35 -26 39 -27 38 18 56 c16 50 22 56 56 67 21 6 41 18 44 26 3 9 21 14 55 14 l51 0 -6 -47z m293 11 c0 -15 -20 -46 -55 -84 l-55 -60 0 84 c0 93 0 93 65 88 40 -4 45 -7 45 -28z m44 21 c-4 -8 -11 -15 -16 -15 -6 0 -5 6 2 15 7 8 14 15 16 15 2 0 1 -7 -2 -15z m-1884 -5 c0 -5 -2 -10 -4 -10 -3 0 -8 5 -11 10 -3 6 -1 10 4 10 6 0 11 -4 11 -10z m130 -72 l0 -82 -49 49 c-45 46 -55 67 -52 103 1 8 18 12 51 12 l50 0 0 -82z m336 37 c6 -43 8 -45 44 -51 49 -8 52 -10 84 -70 l28 -51 -20 -38 -19 -38 41 -35 c80 -70 72 -67 106 -38 37 31 38 31 105 10 58 -18 95 -78 95 -152 0 -41 -39 -46 -64 -7 -11 16 -26 25 -43 25 -57 0 -83 -60 -43 -100 13 -13 20 -33 20 -60 l0 -40 -45 0 c-40 0 -54 7 -128 64 -46 36 -89 72 -96 80 -21 25 -21 83 0 108 47 53 -19 120 -66 68 -21 -23 -93 -28 -113 -8 -22 22 -15 154 9 188 27 36 7 80 -36 80 -43 0 -63 -44 -36 -81 18 -23 21 -40 19 -84 l-3 -54 -77 75 -78 75 0 89 0 90 154 0 155 0 7 -45z m532 10 c109 -46 106 -133 -6 -151 l-42 -7 0 87 c0 47 2 86 5 86 3 0 22 -7 43 -15z m-868 -345 l0 -176 -50 -55 -49 -54 -1 280 0 279 50 -49 50 -49 0 -176z m1705 -5 c0 -151 -2 -275 -4 -275 -2 0 -26 24 -52 53 l-49 52 0 170 0 170 49 53 c26 28 50 52 52 52 2 0 4 -124 4 -275z m-1553 35 l26 -27 -79 -79 -79 -79 0 154 0 154 53 -48 c28 -26 64 -60 79 -75z m1426 -104 l-3 -73 -75 68 -74 68 74 78 75 78 3 -72 c2 -40 2 -106 0 -147z m-470 132 c27 -16 38 -19 52 -10 14 9 28 -1 84 -57 l66 -67 -43 -42 -43 -42 -202 0 -203 0 3 42 c2 29 8 43 18 45 118 15 108 11 117 55 7 36 15 45 58 69 60 34 51 33 93 7z m-723 -79 c0 -7 -8 -15 -17 -17 -18 -3 -25 18 -11 32 10 10 28 1 28 -15z m-107 -74 l77 -74 -160 -1 -159 0 74 75 c41 41 78 75 82 75 5 0 43 -34 86 -75z m1209 3 l72 -73 -144 -3 c-80 -2 -145 1 -145 5 0 8 132 143 140 143 3 0 38 -33 77 -72z m-1151 37 c9 -8 14 -26 12 -41 -3 -25 -3 -25 -43 15 l-39 41 28 0 c15 0 34 -7 42 -15z m374 -101 c21 -25 -13 -55 -36 -32 -19 18 -12 48 9 48 8 0 20 -7 27 -16z m927 -86 c29 -29 53 -55 53 -58 0 -3 -132 -6 -293 -6 l-292 -2 69 63 69 62 171 -4 171 -4 52 -51z m-1194 1 c34 -28 65 -54 69 -58 4 -3 -128 -6 -293 -6 -185 0 -299 4 -299 10 0 5 21 31 47 57 l47 48 184 0 183 0 62 -51z m357 -9 l0 -60 -44 0 c-42 0 -44 1 -51 36 -8 45 23 84 67 84 28 0 28 -1 28 -60z m135 0 l59 -60 -87 0 -87 0 0 60 c0 59 0 60 28 60 21 0 43 -15 87 -60z m188 0 c-33 -33 -66 -60 -71 -60 -6 0 -38 27 -72 60 l-62 60 134 0 133 0 -62 -60z m-323 -181 l0 -91 -94 89 -95 88 87 5 c48 3 90 4 95 2 4 -2 7 -44 7 -93z m141 14 c-131 -121 -121 -120 -121 -14 l0 91 102 0 103 0 -84 -77z"/> <path d="M750 472 c-52 -25 -77 -81 -59 -130 14 -36 47 -59 140 -97 27 -11 37 -48 19 -71 -18 -21 -73 -17 -99 7 l-23 22 -26 -27 -27 -27 23 -19 c87 -72 225 -34 239 65 7 54 -22 89 -102 125 -69 31 -79 41 -70 70 9 29 53 37 88 16 29 -16 31 -16 53 5 33 31 31 37 -18 59 -54 24 -93 25 -138 2z"/> <path d="M1330 488 c-1 -2 -2 -90 -3 -196 l-2 -192 38 0 37 0 0 195 0 195 -35 0 c-19 0 -35 -1 -35 -2z"/> <path d="M1477 472 c-30 -33 -15 -72 28 -72 43 0 59 44 27 73 -24 22 -35 21 -55 -1z"/> <path d="M1094 370 c-78 -18 -120 -77 -111 -156 15 -137 208 -168 272 -44 55 106 -43 227 -161 200z m81 -80 c43 -47 11 -130 -49 -130 -37 0 -49 7 -65 38 -38 72 61 151 114 92z"/> <path d="M1470 236 l0 -136 39 0 39 0 -1 133 -2 132 -37 3 -38 3 0 -135z"/> </g> </svg>