<?xml version="1.0" standalone="no"?> <!DOCTYPE svg PUBLIC "-//W3C//DTD SVG 20010904//EN" "http://www.w3.org/TR/2001/REC-SVG-20010904/DTD/svg10.dtd"> <svg version="1.0" xmlns="http://www.w3.org/2000/svg" width="229.000000pt" height="214.000000pt" viewBox="0 0 229.000000 214.000000" preserveAspectRatio="xMidYMid meet"> <g transform="translate(0.000000,214.000000) scale(0.100000,-0.100000)" fill="#a77b00" stroke="none"> <path d="M1045 1990 l-109 -110 -361 -2 -360 -3 0 -355 0 -356 -35 -31 -35 -32 37 -38 38 -39 -2 -319 -3 -320 347 -5 347 -5 121 -115 c67 -63 125 -116 128 -117 4 -2 65 51 136 117 l130 120 333 0 333 0 0 324 0 323 30 34 c36 42 36 39 0 74 l-30 29 0 358 0 358 -357 0 -358 0 -110 110 -110 110 -110 -110z m105 -30 l0 -80 -82 0 -83 0 80 80 c44 44 81 80 82 80 2 0 3 -36 3 -80z m107 -5 l77 -75 -81 0 -81 0 -4 75 c-2 41 1 75 5 75 4 0 42 -34 84 -75z m-357 -110 c0 -2 -24 -26 -52 -54 l-53 -51 -215 0 -216 0 -54 55 -54 55 322 0 c177 0 322 -2 322 -5z m250 -50 l0 -55 -152 0 -152 0 44 47 c62 66 54 63 163 63 l97 0 0 -55z m308 -17 c53 -39 121 -92 150 -116 62 -53 71 -37 10 19 l-43 38 168 1 c92 0 167 -3 167 -8 0 -4 -43 -49 -95 -101 l-95 -94 -54 51 c-68 64 -163 126 -226 147 -28 9 -55 26 -64 41 -21 31 -70 33 -86 4 -9 -16 -21 -20 -65 -20 l-55 0 0 55 0 55 96 0 95 0 97 -72z m582 63 c0 -4 -23 -29 -51 -54 l-52 -47 -194 0 -193 0 -65 51 c-36 28 -65 53 -65 55 0 3 140 4 310 4 171 -1 310 -5 310 -9z m17 -327 l2 -317 -22 21 c-12 11 -37 34 -54 50 l-33 30 0 213 0 213 52 53 c29 29 52 53 53 53 0 0 1 -142 2 -316z m-1707 -5 l0 -216 -50 -42 -50 -42 0 308 0 307 50 -49 50 -49 0 -217z m419 204 c-1 -5 -44 -48 -95 -97 l-93 -89 -95 88 c-53 49 -96 92 -96 97 0 4 86 8 190 8 105 0 189 -3 189 -7z m381 -43 l0 -50 -50 0 c-49 0 -49 0 -55 -37 -11 -63 -14 -67 -71 -95 l-55 -27 -32 19 c-45 28 -47 27 -101 -35 l-47 -55 31 -39 31 -38 -18 -62 c-17 -57 -21 -62 -60 -77 -29 -12 -43 -23 -43 -35 0 -18 -10 -19 -136 -19 l-136 0 58 60 c35 36 66 60 79 60 28 0 45 18 45 50 0 46 -52 69 -80 35 -8 -10 -29 -15 -59 -15 l-46 1 90 84 c49 47 95 85 100 85 6 0 37 -27 70 -60 32 -33 61 -57 64 -54 3 2 -24 34 -59 69 l-65 65 110 110 110 110 162 0 163 0 0 -50z m142 25 c22 -29 44 -32 75 -10 41 29 181 -45 283 -149 l44 -46 -76 -77 c-65 -65 -79 -75 -92 -64 -13 11 -12 18 7 58 l22 45 -40 35 c-79 68 -81 69 -116 38 -23 -19 -38 -24 -53 -20 -12 4 -40 12 -62 18 -38 10 -43 16 -56 56 -10 34 -20 47 -38 51 -14 3 -25 11 -24 18 1 7 2 26 3 42 1 29 2 30 52 30 43 0 54 -4 71 -25z m-825 -282 l-97 -98 0 195 0 195 97 -98 98 -97 -98 -97z m1463 96 l0 -190 -100 93 -100 92 97 98 c54 54 99 98 100 98 2 0 3 -86 3 -191z m-215 -91 c-40 -47 -25 -107 31 -128 23 -9 24 -14 24 -90 l0 -80 -49 0 -49 0 -7 60 -7 61 -43 11 c-32 9 -47 19 -57 42 l-15 30 81 77 c75 71 82 76 98 62 17 -15 16 -17 -7 -45z m-419 27 c74 -22 147 -73 140 -98 -3 -12 4 -33 16 -49 24 -34 48 -109 48 -150 0 -44 -104 -42 -204 6 -39 18 -83 38 -98 45 -27 10 -28 13 -28 82 l0 71 33 -7 c45 -10 100 -40 141 -75 45 -40 46 -39 46 24 l0 55 -66 32 c-161 80 -344 10 -344 -130 0 -51 18 -80 65 -111 l30 -20 -99 0 -99 0 6 58 c18 203 210 327 413 267z m504 -49 c28 -35 -11 -93 -47 -70 -36 22 -23 84 17 84 10 0 23 -7 30 -14z m92 -83 c38 -37 38 -38 38 -115 l0 -78 -59 0 -58 0 -6 82 c-6 73 -5 84 13 103 11 12 20 27 20 33 0 20 12 14 52 -25z m-732 -33 c0 -66 -9 -74 -47 -38 -28 26 -29 52 -3 78 37 37 50 26 50 -40z m-600 10 c0 -11 -6 -20 -14 -20 -18 0 -29 16 -21 30 11 18 35 11 35 -10z m-60 -29 c0 -3 -29 -36 -65 -71 l-65 -64 0 70 c0 39 2 73 4 75 7 7 126 -2 126 -10z m-150 -76 l0 -65 -54 0 c-43 0 -54 3 -52 15 2 13 94 115 103 115 2 0 3 -29 3 -65z m1702 -29 c19 -27 7 -36 -47 -36 l-55 0 0 66 0 67 48 -44 c26 -24 50 -48 54 -53z m-927 -58 c24 -11 25 -15 25 -95 0 -50 -4 -83 -10 -83 -26 0 -83 32 -123 69 -52 48 -57 50 -57 14 0 -65 31 -111 95 -140 179 -80 389 22 355 173 -5 20 -13 41 -19 47 -21 21 -10 27 50 27 l62 0 -6 -52 c-27 -228 -291 -344 -492 -217 -25 16 -54 29 -64 29 -32 0 -46 27 -33 62 9 25 8 39 -9 79 -10 27 -19 61 -19 74 l0 25 110 0 c61 0 120 -5 135 -12z m-905 -8 c0 -5 -2 -10 -4 -10 -3 0 -8 5 -11 10 -3 6 -1 10 4 10 6 0 11 -4 11 -10z m130 -72 l0 -82 -49 48 c-44 43 -69 95 -53 111 3 3 27 5 54 5 l48 0 0 -82z m336 35 c9 -46 10 -47 56 -58 44 -9 50 -14 75 -64 l26 -54 -21 -38 -21 -37 47 -38 c26 -21 52 -42 59 -46 7 -6 25 0 50 16 l38 25 57 -17 c53 -16 57 -19 77 -67 32 -76 29 -115 -8 -115 -16 0 -31 6 -35 15 -3 8 -17 20 -30 27 -56 25 -108 -62 -56 -94 15 -10 20 -24 20 -55 l0 -43 -49 0 c-45 0 -55 5 -133 67 -45 37 -86 72 -90 77 -14 19 -8 86 8 112 24 36 6 74 -36 74 -18 0 -33 -6 -36 -15 -10 -24 -100 -21 -114 4 -19 36 -13 148 10 171 46 46 -12 115 -64 77 -23 -17 -24 -66 -2 -82 16 -12 24 -125 9 -125 -4 0 -40 33 -80 72 l-73 72 0 93 0 93 153 0 154 0 9 -47z m1084 25 c0 -51 -43 -170 -65 -178 -32 -12 -48 -37 -41 -65 17 -66 104 -46 93 22 -4 22 -1 46 8 64 8 15 20 52 25 81 6 29 13 63 16 76 4 20 10 22 64 22 l60 0 0 -99 0 -99 -126 -121 c-70 -67 -130 -120 -134 -119 -4 2 -37 30 -73 64 l-67 61 26 24 c45 42 47 55 18 98 l-26 40 20 52 c17 47 24 55 61 67 22 7 41 18 41 23 0 5 23 9 50 9 45 0 50 -2 50 -22z m290 -5 c-1 -20 -17 -46 -55 -87 l-55 -59 0 87 0 86 55 0 c53 0 55 -1 55 -27z m45 17 c-3 -5 -11 -10 -16 -10 -6 0 -7 5 -4 10 3 6 11 10 16 10 6 0 7 -4 4 -10z m-838 -56 c67 -43 22 -124 -68 -124 l-29 0 0 85 0 85 38 -15 c20 -9 47 -23 59 -31z m-917 -319 l-1 -180 -49 -53 -50 -53 0 282 0 283 50 -49 50 -49 0 -181z m1707 -6 l-1 -281 -53 55 -53 55 0 173 0 173 52 53 c29 29 53 53 54 53 0 0 1 -127 1 -281z m-1604 83 l77 -78 -80 -78 -80 -78 0 156 c0 86 1 156 3 156 1 0 37 -35 80 -78z m1475 -149 l-3 -78 -75 72 -75 72 75 76 75 76 3 -70 c2 -39 2 -105 0 -148z m-419 122 c14 4 36 -10 85 -56 l67 -63 -43 -43 -42 -43 -203 0 -203 0 0 39 c0 43 12 51 86 51 44 0 54 12 54 67 0 17 13 29 57 51 l57 29 32 -19 c19 -11 42 -17 53 -13z m-771 -67 c-7 -19 -38 -22 -38 -4 0 10 9 16 21 16 12 0 19 -5 17 -12z m-113 -73 l80 -74 -160 -1 -159 0 74 75 c41 41 77 75 80 75 3 0 41 -34 85 -75z m1215 0 l74 -75 -154 0 -155 0 80 75 c44 40 80 74 80 75 0 0 34 -34 75 -75z m-1158 38 c10 -9 18 -27 18 -40 0 -24 0 -24 -40 9 -22 18 -40 36 -40 41 0 13 43 7 62 -10z m373 -114 c0 -17 -6 -24 -20 -24 -23 0 -33 34 -13 46 20 13 33 5 33 -22z m-310 -29 c4 -6 33 -33 66 -60 l60 -50 -306 0 -306 0 52 60 52 60 188 0 c118 0 190 -4 194 -10z m405 -50 l0 -60 -45 0 c-41 0 -45 2 -46 25 -1 14 -2 30 -3 35 -2 22 40 59 67 60 26 0 27 -1 27 -60z m135 0 l59 -60 -87 0 -87 0 0 60 c0 59 0 60 28 60 21 0 43 -15 87 -60z m245 56 c0 -11 -117 -116 -130 -116 -9 0 -42 27 -75 60 l-59 60 132 0 c73 0 132 -2 132 -4z m457 -48 c29 -29 53 -56 53 -60 0 -4 -131 -8 -291 -8 l-292 0 64 60 64 59 175 1 174 0 53 -52z m-837 -189 l0 -90 -27 20 c-16 11 -59 51 -98 90 l-69 71 97 0 97 0 0 -91z m220 88 c0 -2 -45 -45 -100 -96 l-100 -93 0 96 0 96 100 0 c55 0 100 -1 100 -3z"/> </g> </svg>