<?xml version="1.0" standalone="no"?> <!DOCTYPE svg PUBLIC "-//W3C//DTD SVG 20010904//EN" "http://www.w3.org/TR/2001/REC-SVG-20010904/DTD/svg10.dtd"> <svg version="1.0" xmlns="http://www.w3.org/2000/svg" width="219.000000pt" height="211.000000pt" viewBox="0 0 219.000000 211.000000" preserveAspectRatio="xMidYMid meet"> <g transform="translate(0.000000,211.000000) scale(0.100000,-0.100000)" fill="#a77b00" stroke="none"> <path d="M2018 2093 c12 -2 32 -2 45 0 12 2 2 4 -23 4 -25 0 -35 -2 -22 -4z"/> <path d="M1002 1958 l-99 -100 -273 -2 -274 -1 2 -275 3 -275 -106 -105 c-58 -57 -105 -109 -105 -115 0 -5 48 -57 105 -115 l106 -105 -1 -240 c-1 -132 -1 -248 -1 -257 1 -17 21 -18 269 -18 l269 0 99 -105 c54 -57 104 -105 109 -105 6 0 57 47 113 105 l103 105 257 2 257 3 1 258 0 258 108 108 108 108 -106 104 -107 104 -2 280 -2 280 -269 1 -269 0 -98 101 -98 101 -99 -100z m85 -105 c-3 -2 -35 -3 -71 -1 l-67 3 68 73 68 73 3 -72 c2 -39 1 -73 -1 -76z m103 72 l74 -75 -77 0 -77 0 0 75 c0 41 1 75 3 75 1 0 36 -34 77 -75z m-167 -104 l67 -1 0 -50 0 -50 -130 0 c-71 0 -130 3 -130 7 0 17 93 101 109 98 9 -2 46 -4 84 -4z m362 -65 c50 -38 111 -87 136 -108 63 -52 73 -48 19 7 l-44 45 94 0 94 0 -64 -65 -64 -65 -26 24 c-42 39 -115 84 -169 106 -29 11 -62 32 -75 47 -26 30 -74 26 -83 -7 -4 -16 -14 -20 -49 -20 l-44 0 0 49 0 50 43 3 c130 10 135 8 232 -66z m-567 14 l-50 -50 -138 0 -137 0 -42 45 c-22 24 -41 47 -41 50 0 3 103 5 229 5 l229 0 -50 -50z m927 0 l-49 -50 -114 0 -114 0 -60 50 -60 50 223 0 223 0 -49 -50z m60 -195 c0 -129 -2 -235 -5 -235 -3 0 -25 19 -48 43 l-42 43 0 142 0 143 46 49 c26 28 47 50 48 50 0 0 1 -106 1 -235z m-1325 -5 l0 -146 -45 -44 -45 -44 0 234 0 234 45 -44 45 -44 0 -146z m257 120 c-6 -8 -32 -36 -58 -62 l-46 -46 -61 61 -61 62 118 0 c104 0 118 -2 108 -15z m351 -31 l3 -47 -55 -6 -54 -7 -7 -47 c-6 -44 -10 -49 -60 -78 l-54 -31 -42 24 c-41 23 -44 23 -56 7 -12 -17 -17 -14 -63 31 l-50 49 77 78 78 79 140 -3 140 -3 3 -46z m116 26 c18 -28 34 -30 82 -13 38 14 146 -34 217 -95 l37 -32 -43 -43 -43 -43 -46 40 -46 41 -36 -29 -35 -28 -61 21 c-56 19 -62 24 -72 60 -7 22 -20 41 -30 44 -14 3 -18 15 -18 53 l0 49 39 0 c30 0 42 -5 55 -25z m-627 -76 l42 -45 -59 -59 -60 -59 0 124 c0 119 1 123 18 104 10 -10 36 -40 59 -65z m1111 -98 l-3 -59 -58 53 -58 54 58 62 58 61 3 -55 c2 -31 2 -83 0 -116z m-994 -20 l48 -48 -32 -37 -32 -36 32 -40 31 -39 -17 -53 c-9 -29 -18 -58 -20 -65 -2 -7 -21 -17 -43 -24 -29 -9 -41 -18 -41 -31 0 -16 -10 -18 -106 -18 -120 0 -118 -5 -40 77 21 23 43 40 48 37 13 -9 48 26 48 48 0 19 -33 58 -50 58 -5 0 -19 -9 -31 -21 -15 -15 -30 -19 -62 -17 l-41 3 124 128 c68 70 127 127 130 127 3 0 27 -22 54 -49z m912 -12 l51 -51 -23 -23 c-43 -43 -25 -125 31 -139 24 -6 25 -9 25 -86 l0 -80 -44 0 c-48 0 -56 10 -56 81 0 35 -2 37 -45 49 -40 11 -48 19 -75 67 l-29 55 20 39 c11 22 17 44 13 50 -5 9 62 89 75 89 3 0 29 -23 57 -51z m-364 -55 c73 -29 130 -73 126 -98 -1 -12 4 -33 13 -47 23 -35 49 -117 49 -154 l0 -31 -63 2 c-50 1 -80 9 -138 36 -74 36 -115 53 -134 58 -66 16 -89 97 -35 125 l30 16 0 -61 c0 -38 4 -59 10 -55 5 3 9 28 8 56 0 27 2 52 5 55 12 12 104 -28 152 -66 l50 -40 3 46 c4 63 1 68 -65 100 -211 104 -450 -83 -294 -228 l40 -38 -94 0 -95 0 7 48 c29 226 225 354 425 276z m479 -55 c17 -33 -4 -71 -38 -67 -36 4 -50 29 -35 62 15 33 56 35 73 5z m80 -104 c1 -16 1 -60 0 -97 l-1 -68 -40 0 -40 0 0 79 c0 98 31 163 62 133 10 -10 18 -30 19 -47z m-1261 0 c0 -8 -9 -15 -20 -15 -11 0 -20 7 -20 15 0 8 9 15 20 15 11 0 20 -7 20 -15z m-180 -90 l0 -75 -77 0 -77 0 74 75 c41 41 76 75 77 75 2 0 3 -34 3 -75z m120 66 c0 -5 -20 -31 -45 -58 l-44 -48 -1 58 0 57 45 0 c25 0 45 -4 45 -9z m1440 -66 l74 -75 -79 0 -80 0 0 75 c0 41 2 75 5 75 3 0 39 -34 80 -75z m-863 -97 l33 -12 0 -89 0 -89 -27 7 c-33 8 -76 37 -125 84 l-38 35 0 -46 c0 -26 5 -50 10 -53 6 -3 10 -15 10 -25 0 -34 92 -72 183 -78 96 -6 151 13 201 68 51 56 56 97 21 183 -6 15 0 17 50 17 l58 0 -7 -47 c-30 -227 -255 -338 -467 -230 -41 20 -79 37 -86 37 -26 0 -44 42 -28 66 13 20 13 27 0 57 -8 19 -19 53 -24 76 l-9 40 97 4 c53 1 100 4 105 5 5 1 25 -3 43 -10z m-697 -78 c0 -44 -1 -80 -3 -80 -1 0 -38 36 -82 80 l-80 80 83 0 82 0 0 -80z m264 58 c3 -13 6 -35 6 -50 0 -23 6 -27 48 -38 45 -10 50 -15 74 -63 l26 -53 -20 -38 -20 -39 53 -48 c64 -57 61 -56 104 -23 l34 26 58 -19 c52 -18 59 -24 72 -59 9 -21 19 -40 23 -42 4 -2 8 -24 8 -48 0 -52 -26 -61 -54 -19 -20 30 -58 33 -85 6 -23 -23 -17 -67 10 -84 13 -8 19 -24 19 -49 0 -59 -47 -54 -142 13 -134 94 -170 150 -123 189 18 15 20 61 3 78 -17 17 -53 15 -68 -3 -19 -23 -87 -20 -100 4 -16 32 -13 148 5 155 34 13 4 86 -36 86 -45 0 -66 -69 -29 -92 15 -9 20 -24 20 -53 l0 -40 -60 62 -60 61 0 101 0 101 114 0 c109 0 114 -1 120 -22z m1063 -31 c-10 -81 -34 -141 -67 -166 -49 -36 -36 -91 22 -91 35 0 55 32 39 66 -8 18 -6 33 11 71 11 26 23 75 26 110 l5 63 38 0 38 0 3 -97 3 -98 -79 -85 c-44 -47 -96 -101 -117 -121 l-37 -36 -56 56 -55 56 35 43 36 42 -27 36 -28 36 18 59 c17 55 21 60 58 71 21 6 41 18 44 25 3 8 22 13 50 13 l46 0 -6 -53z m237 -27 c-43 -44 -82 -80 -86 -80 -4 0 -6 36 -6 80 l2 80 84 0 85 0 -79 -80z m-758 29 c77 -37 89 -103 24 -136 -26 -14 -87 -14 -82 0 1 4 2 41 2 82 0 41 2 75 5 75 3 0 26 -10 51 -21z m-686 -409 l-1 -125 -44 -50 -45 -50 0 220 0 219 45 -44 45 -44 0 -126z m1322 -2 l-3 -213 -44 47 -45 47 0 123 0 122 42 43 c23 24 45 43 48 43 3 0 4 -96 2 -212z m-416 131 c19 -11 42 -18 52 -15 12 4 33 -10 72 -49 l54 -55 -54 -55 -54 -55 -173 0 -173 0 0 44 c0 47 15 56 92 56 30 0 33 4 42 60 5 31 56 73 105 89 2 0 19 -8 37 -20z m-796 -134 c0 -6 -20 -31 -45 -55 l-45 -44 0 99 0 100 45 -45 c24 -25 44 -50 45 -55z m1100 0 l0 -94 -47 50 -46 50 43 44 c24 25 45 45 47 45 2 0 3 -43 3 -95z m-987 58 c8 -7 -11 -33 -24 -33 -5 0 -9 9 -9 20 0 19 20 27 33 13z m-50 -43 c9 -11 17 -30 17 -42 0 -20 -3 -19 -35 12 -19 19 -35 38 -35 42 0 16 36 8 53 -12z m977 -73 l44 -47 -94 0 -94 0 49 50 c27 27 49 48 49 47 1 -1 21 -24 46 -50z m-943 -43 c-6 -5 -167 -11 -167 -6 0 4 19 26 42 49 l42 43 43 -42 c23 -23 42 -43 40 -44z m329 11 c8 -20 -13 -45 -32 -38 -14 5 -19 34 -7 46 11 12 33 7 39 -8z m-284 -48 c7 -7 40 -32 72 -55 l59 -42 -234 0 -233 0 54 55 54 55 107 0 c74 0 112 -4 121 -13z m358 -42 l0 -55 -40 0 c-39 0 -40 1 -40 36 0 38 29 73 63 74 14 0 17 -9 17 -55z m123 6 c60 -63 61 -61 -28 -61 l-75 0 0 55 c0 77 34 78 103 6z m158 -1 c-29 -27 -56 -50 -60 -50 -4 0 -29 23 -56 50 l-49 50 109 0 109 0 -53 -50z m373 0 c25 -27 46 -52 46 -55 0 -3 -98 -5 -217 -5 l-217 0 54 55 54 55 117 0 116 0 47 -50z m-654 -167 l0 -77 -75 74 c-41 41 -75 76 -75 77 0 2 34 3 75 3 l75 0 0 -77z m180 74 c0 -1 -36 -38 -80 -82 l-80 -80 0 83 0 82 80 0 c44 0 80 -1 80 -3z"/> <path d="M2050 2020 c0 -7 3 -10 7 -7 3 4 3 10 0 14 -4 3 -7 0 -7 -7z"/> </g> </svg>