<?xml version="1.0" standalone="no"?>
<!DOCTYPE svg PUBLIC "-//W3C//DTD SVG 20010904//EN"
 "http://www.w3.org/TR/2001/REC-SVG-20010904/DTD/svg10.dtd">
<svg version="1.0" xmlns="http://www.w3.org/2000/svg"
 width="229.000000pt" height="240.000000pt" viewBox="0 0 229.000000 240.000000"
 preserveAspectRatio="xMidYMid meet">
<g transform="translate(0.000000,240.000000) scale(0.100000,-0.100000)"
fill="#000000" stroke="none">
<path d="M1036 2291 c-60 -61 -112 -110 -115 -109 -3 0 -165 0 -358 -1 l-353
-1 0 -348 0 -348 -30 -29 c-37 -36 -37 -44 0 -80 l30 -29 0 -323 0 -323 348 0
347 0 126 -120 127 -120 128 120 129 119 331 1 331 0 8 109 c3 60 3 202 -1
316 l-7 206 39 40 38 39 -37 38 -36 37 5 348 c5 331 4 347 -13 347 -10 0 -171
0 -358 0 l-340 0 -110 110 c-60 60 -112 110 -115 110 -3 0 -54 -49 -114 -109z
m104 -26 l0 -85 -80 0 c-44 0 -80 3 -80 6 0 5 150 160 158 163 1 1 2 -37 2
-84z m110 0 l85 -85 -88 0 -87 0 0 85 c0 47 1 85 3 85 1 0 40 -38 87 -85z
m-405 -165 l-49 -50 -221 0 -221 0 -49 50 -49 50 319 0 319 0 -49 -50z m295 0
l0 -50 -152 0 -152 0 49 50 49 50 103 0 103 0 0 -50z m311 -10 c46 -32 111
-82 144 -110 69 -58 87 -52 23 9 l-43 40 170 1 170 0 -100 -100 -99 -100 -46
43 c-87 83 -224 167 -272 167 -7 0 -18 10 -23 22 -15 35 -95 37 -95 3 0 -12
-14 -15 -60 -15 l-60 0 0 50 0 50 104 0 103 0 84 -60z m534 10 l-49 -50 -194
0 -193 0 -66 50 -66 50 309 0 308 0 -49 -50z m-1681 -20 l46 -49 0 -208 0
-207 -47 -48 c-26 -26 -50 -48 -53 -48 -3 0 -5 137 -5 305 0 168 3 305 6 305
4 0 27 -22 53 -50z m1744 -410 l-3 -149 -53 51 -52 50 6 207 6 206 47 48 46
48 3 -156 c1 -86 1 -223 0 -305z m-1288 352 c0 -4 -41 -47 -91 -95 l-91 -88
-94 87 c-52 47 -94 90 -94 95 0 5 82 9 185 9 102 0 185 -4 185 -8z m380 -37
c0 -42 -2 -45 -27 -45 -58 0 -71 -9 -78 -55 -6 -41 -10 -46 -62 -74 l-55 -30
-41 21 -41 20 -48 -53 c-56 -63 -56 -64 -20 -107 l28 -33 -20 -63 c-18 -59
-23 -64 -60 -78 -28 -10 -41 -21 -41 -33 0 -17 -12 -19 -133 -21 -72 -2 -132
0 -132 5 0 12 114 116 124 113 35 -12 72 58 44 86 -17 17 -65 15 -76 -4 -6
-11 -21 -14 -55 -12 l-47 3 94 87 94 88 64 -60 c86 -81 99 -76 15 7 l-67 68
107 107 108 108 162 0 163 0 0 -45z m140 26 c15 -29 47 -35 76 -16 47 31 163
-25 276 -133 l59 -56 -78 -78 c-69 -69 -79 -76 -90 -62 -10 13 -8 24 7 55 25
49 29 39 -40 99 l-60 52 -35 -26 -35 -27 -62 19 c-58 18 -63 22 -76 61 -11 33
-18 41 -38 41 -22 0 -24 4 -24 45 l0 45 55 0 c43 0 56 -4 65 -19z m-812 -94
l92 -92 -95 -95 -95 -95 0 188 c0 103 1 187 3 187 1 0 44 -42 95 -93z m1455
-95 c3 -100 2 -182 -2 -182 -3 0 -28 22 -56 49 -27 27 -70 67 -94 88 l-44 39
94 95 c52 52 95 94 96 94 1 0 4 -82 6 -183z m-201 -48 c17 -16 17 -18 -7 -40
-44 -41 -30 -113 25 -132 l30 -11 0 -80 0 -81 -49 0 -50 0 -6 48 c-3 26 -7 54
-8 62 -1 8 -20 19 -42 26 -26 7 -46 21 -57 40 l-18 29 77 77 c87 88 80 84 105
62z m-435 -9 c76 -23 149 -75 145 -104 -1 -13 5 -32 13 -41 24 -26 55 -115 55
-155 l0 -35 -66 0 c-49 0 -73 5 -93 19 -15 11 -61 33 -102 49 l-74 30 -3 66
-3 66 30 0 c43 0 79 -16 138 -61 65 -49 63 -49 63 11 0 60 -34 89 -138 115
-206 53 -368 -129 -226 -254 l45 -39 -98 2 -98 3 2 50 c8 202 209 338 410 278z
m511 -57 c17 -17 15 -53 -3 -68 -38 -31 -96 27 -65 65 15 18 51 20 68 3z
m-648 -108 c0 -67 -8 -73 -46 -35 -27 27 -26 59 4 83 33 25 42 15 42 -48z
m740 25 c33 -34 35 -40 36 -110 l1 -75 -41 0 c-23 0 -51 -3 -63 -6 -23 -6 -23
-5 -23 85 0 55 4 91 10 91 6 0 16 11 22 25 15 32 18 32 58 -10z m-1330 -19 c0
-15 -24 -28 -34 -19 -13 14 -5 33 14 33 11 0 20 -6 20 -14z m-60 -24 c0 -4
-29 -37 -65 -72 l-65 -64 0 72 0 72 65 0 c36 0 65 -4 65 -8z m-150 -82 l0 -70
-50 0 c-73 0 -75 19 -9 86 29 30 55 54 56 54 2 0 3 -31 3 -70z m1668 6 c53
-49 45 -77 -20 -74 l-53 3 -3 70 -3 69 23 -19 c13 -11 38 -33 56 -49z m72 -71
c0 -3 -2 -5 -5 -5 -3 0 -5 2 -5 5 0 3 2 5 5 5 3 0 5 -2 5 -5z m-1742 -97 c3
-92 2 -92 -60 -31 -72 71 -69 112 10 109 l47 -1 3 -77z m332 48 c0 -54 8 -65
56 -72 40 -6 46 -11 74 -60 l30 -53 -22 -37 -22 -37 55 -49 c63 -56 61 -55
104 -23 l33 26 59 -19 c52 -17 59 -23 73 -58 8 -21 18 -40 22 -42 4 -2 8 -21
8 -43 0 -48 -34 -54 -74 -14 -31 31 -50 32 -81 0 -31 -30 -31 -36 0 -73 17
-20 25 -42 25 -66 l0 -36 -48 0 c-52 0 -61 5 -169 93 -83 66 -98 114 -52 163
40 43 -18 100 -65 63 -19 -15 -37 -19 -73 -17 l-48 3 -3 84 c-2 62 1 86 11 95
41 33 16 89 -36 84 -45 -4 -62 -52 -29 -78 19 -15 22 -28 22 -81 l0 -64 -80
80 -80 80 0 92 0 92 155 0 155 1 0 -34z m451 24 c16 -9 19 -22 19 -95 0 -47
-2 -85 -5 -85 -19 0 -102 49 -140 82 l-45 40 0 -46 c0 -25 5 -46 10 -46 6 0
10 -9 10 -20 0 -36 91 -73 190 -78 173 -8 288 110 226 231 l-15 27 61 0 60 0
-7 -47 c-24 -164 -166 -274 -336 -260 -68 6 -159 38 -180 63 -6 8 -22 14 -35
14 -36 0 -58 38 -39 67 14 20 14 26 1 52 -9 16 -20 47 -25 70 l-9 41 120 0
c65 0 128 -5 139 -10z m633 -27 c-18 -103 -43 -158 -74 -170 -51 -19 -38 -93
16 -93 35 0 57 28 50 64 -4 19 1 50 14 82 10 28 22 75 26 103 l7 52 61 -3 61
-3 0 -93 0 -93 -123 -122 c-67 -67 -126 -123 -130 -124 -4 -1 -38 26 -75 60
l-68 63 37 42 36 43 -28 36 -27 36 19 55 c17 51 23 57 62 70 23 7 42 18 42 23
0 5 23 9 50 9 l51 0 -7 -37z m286 2 c0 -32 -78 -135 -103 -135 -9 0 -9 155 0
163 3 4 28 7 55 7 l48 0 0 -35z m50 20 c-7 -9 -15 -13 -17 -11 -7 7 7 26 19
26 6 0 6 -6 -2 -15z m-1885 -5 c3 -5 4 -10 1 -10 -3 0 -8 5 -11 10 -3 6 -4 10
-1 10 3 0 8 -4 11 -10z m1025 -35 c94 -48 64 -135 -46 -135 l-34 0 0 85 0 85
25 -10 c14 -5 39 -17 55 -25z m-890 -331 l0 -171 -52 -58 -53 -57 -2 283 -3
283 55 -54 55 -54 0 -172z m1700 -6 l0 -273 -50 50 -49 50 -2 173 -2 173 48
49 c27 28 51 50 52 50 2 0 3 -123 3 -272z m-1535 11 c0 -8 -33 -45 -72 -83
l-73 -69 0 148 0 148 73 -65 c39 -36 72 -72 72 -79z m1410 104 c-2 -21 -3 -87
-4 -148 l-1 -110 -72 73 -73 72 75 75 c41 41 75 75 76 75 1 0 1 -17 -1 -37z
m-416 -60 c8 8 30 -7 78 -56 l67 -67 -39 -40 -39 -40 -207 0 -208 0 1 39 0 40
57 6 c79 9 79 9 86 57 7 40 11 45 59 69 l51 25 42 -22 c30 -16 44 -19 52 -11z
m-779 -68 c0 -8 -7 -15 -15 -15 -8 0 -15 7 -15 15 0 8 7 15 15 15 8 0 15 -7
15 -15z m-106 -72 l76 -73 -157 0 -157 0 74 75 c41 41 78 74 81 73 4 -2 41
-36 83 -75z m1216 -3 l75 -69 -155 0 -155 0 73 69 c41 39 77 70 80 70 4 -1 41
-32 82 -70z m-1156 41 c10 -11 16 -31 14 -46 -3 -26 -3 -26 -48 19 l-44 46 30
0 c18 0 38 -8 48 -19z m374 -113 c-2 -15 -10 -23 -23 -23 -13 0 -21 8 -23 23
-3 18 1 22 23 22 22 0 26 -4 23 -22z m-318 -33 c7 -9 40 -36 72 -60 l60 -45
-306 0 c-168 0 -306 3 -306 7 0 4 23 31 52 60 l52 53 182 0 c150 0 184 -3 194
-15z m410 -45 l0 -60 -50 0 -50 0 0 37 c0 46 32 83 72 83 28 0 28 -1 28 -60z
m123 4 c31 -31 57 -58 57 -60 0 -5 -155 -5 -161 0 -2 2 -2 29 -1 60 5 75 27
75 105 0z m200 -4 c-75 -74 -75 -74 -148 0 l-59 60 134 0 135 0 -62 -60z m516
1 l51 -60 -292 0 -293 0 64 59 64 60 177 0 177 0 52 -59z m-839 -181 c0 -49
-3 -90 -7 -90 -4 0 -48 41 -99 90 l-91 90 98 0 99 0 0 -90z m193 62 c-17 -15
-63 -56 -102 -91 l-71 -63 0 91 0 91 103 0 102 -1 -32 -27z"/>
<path d="M764 459 c-116 -34 -106 -173 15 -214 65 -21 88 -47 73 -80 -14 -31
-67 -34 -103 -6 -24 19 -25 19 -54 -6 -28 -25 -28 -26 -9 -40 105 -81 244 -40
244 72 0 56 -22 82 -96 116 -36 15 -67 36 -71 45 -16 43 47 69 94 39 24 -16
26 -16 49 6 49 46 -50 95 -142 68z"/>
<path d="M1320 276 l0 -196 40 0 40 0 -2 193 -3 192 -37 3 -38 3 0 -195z"/>
<path d="M1477 452 c-30 -33 -15 -72 28 -72 42 0 59 44 29 74 -20 21 -37 20
-57 -2z"/>
<path d="M1079 348 c-68 -17 -118 -101 -102 -168 24 -98 148 -140 233 -80 130
92 26 288 -131 248z m91 -78 c25 -25 27 -86 3 -112 -24 -27 -87 -24 -107 4
-38 54 -6 128 54 128 17 0 39 -9 50 -20z"/>
<path d="M1470 215 l0 -135 35 0 35 0 0 135 0 135 -35 0 -35 0 0 -135z"/>
</g>
</svg>
