<?xml version="1.0" standalone="no"?>
<!DOCTYPE svg PUBLIC "-//W3C//DTD SVG 20010904//EN"
 "http://www.w3.org/TR/2001/REC-SVG-20010904/DTD/svg10.dtd">
<svg version="1.0" xmlns="http://www.w3.org/2000/svg"
 width="229.000000pt" height="211.000000pt" viewBox="0 0 229.000000 211.000000"
 preserveAspectRatio="xMidYMid meet">
<g transform="translate(0.000000,211.000000) scale(0.100000,-0.100000)"
fill="#000000" stroke="none">
<path d="M1045 1940 l-109 -110 -361 -2 -360 -3 0 -347 -1 -348 -34 -35 -34
-35 35 -36 34 -35 -3 -320 -4 -319 347 0 347 0 124 -118 c69 -64 129 -118 133
-120 3 -1 66 52 138 118 l131 120 331 0 331 0 0 318 0 317 30 32 c37 39 37 42
0 78 l-30 29 0 353 0 353 -358 0 -359 0 -104 110 c-57 60 -106 110 -109 110
-3 0 -55 -49 -115 -110z m105 -25 l0 -85 -87 0 -88 0 85 85 c47 47 86 85 87
85 2 0 3 -38 3 -85z m105 -5 l80 -80 -83 0 -82 0 0 80 c0 44 1 80 3 80 1 0 38
-36 82 -80z m-405 -165 l-55 -54 -215 -1 -216 0 -54 55 -54 55 324 0 325 0
-55 -55z m300 0 l0 -55 -157 0 -157 0 54 55 54 55 103 0 103 0 0 -55z m296 -2
c44 -31 108 -81 144 -110 35 -29 68 -53 72 -53 17 0 5 17 -38 53 l-45 37 168
0 168 0 -97 -97 -98 -97 -37 35 c-91 86 -175 139 -265 168 -21 7 -38 19 -38
26 0 39 -83 43 -95 5 -5 -17 -15 -20 -61 -20 l-54 0 0 55 0 55 99 0 98 0 79
-57z m544 2 l-54 -55 -191 0 -190 0 -69 55 -69 55 314 0 313 0 -54 -55z m68
-271 c3 -354 10 -328 -70 -255 l-38 35 0 210 1 211 51 58 c29 31 53 57 53 57
1 0 2 -142 3 -316z m-1709 -4 l0 -215 -52 -46 -52 -46 3 310 3 311 49 -50 50
-49 -1 -215z m326 107 l-98 -94 -93 90 c-52 49 -94 91 -94 93 0 2 86 4 192 4
l191 0 -98 -93z m475 48 l0 -45 -50 0 c-54 0 -54 0 -65 -63 -4 -22 -13 -41
-23 -44 -9 -4 -33 -17 -53 -29 l-36 -22 -42 25 c-23 14 -43 23 -45 21 -1 -1
-24 -29 -51 -61 l-48 -58 31 -38 31 -38 -18 -59 c-16 -51 -23 -60 -60 -78 -25
-12 -41 -27 -41 -38 0 -16 -12 -18 -137 -18 l-137 0 59 60 c36 36 68 60 81 60
51 0 61 77 12 94 -22 8 -32 6 -47 -8 -16 -14 -111 -32 -111 -21 0 1 43 41 95
89 l95 88 67 -60 c88 -78 95 -70 13 13 l-65 65 105 105 105 105 167 0 168 0 0
-45z m140 25 c23 -23 49 -25 75 -6 37 27 197 -59 290 -154 l39 -40 -74 -75
c-41 -41 -78 -75 -83 -75 -18 0 -18 33 -1 71 l18 41 -55 48 c-63 58 -63 57
-105 25 l-33 -25 -62 23 c-58 20 -63 25 -77 65 -11 35 -18 42 -35 40 -22 -3
-23 2 -18 70 2 21 98 15 121 -8z m640 -181 l0 -190 -99 91 -99 92 97 98 c53
53 97 98 99 99 1 0 2 -85 2 -190z m-1440 74 l75 -72 -97 -98 -98 -98 0 189 0
189 22 -19 c12 -10 56 -51 98 -91z m824 -140 c76 -30 128 -72 122 -98 -3 -13
-2 -26 4 -30 17 -10 51 -99 57 -147 l6 -48 -67 0 c-54 0 -76 5 -119 29 -28 16
-73 37 -99 46 l-48 18 0 68 c0 63 2 69 20 69 33 0 90 -28 148 -71 l53 -40 -3
58 -3 57 -55 29 c-145 74 -322 23 -350 -99 -11 -49 15 -109 62 -141 l33 -23
-102 0 -102 0 5 38 c34 240 228 367 438 285z m415 13 c9 -11 7 -19 -14 -40
-43 -43 -26 -116 30 -130 24 -6 25 -9 25 -86 l0 -80 -49 0 -49 0 -7 60 -7 60
-46 13 c-82 24 -80 54 9 143 76 77 89 84 108 60z m74 -67 c28 -40 1 -77 -47
-65 -32 8 -40 42 -15 67 25 25 44 24 62 -2z m-652 -104 c2 -64 -6 -71 -43 -38
-26 23 -22 58 9 82 32 26 31 28 34 -44z m779 -87 l0 -78 -59 0 -58 0 -6 82
c-5 77 -4 83 21 114 l27 34 37 -37 c38 -37 38 -38 38 -115z m-1374 101 c10
-17 -13 -36 -27 -22 -12 12 -4 33 11 33 5 0 12 -5 16 -11z m-56 -37 c0 -4 -29
-37 -65 -72 l-65 -64 0 72 0 72 65 0 c36 0 65 -4 65 -8z m-150 -77 l0 -65 -55
0 c-71 0 -72 15 -2 80 28 27 53 50 55 50 1 0 2 -29 2 -65z m1710 -46 c0 -16
-8 -19 -55 -19 l-55 0 0 66 0 66 55 -47 c30 -26 55 -56 55 -66z m-1840 -24 c0
-3 -2 -5 -5 -5 -3 0 -5 2 -5 5 0 3 2 5 5 5 3 0 5 -2 5 -5z m911 -15 c16 -9 19
-22 19 -96 0 -84 0 -85 -22 -79 -37 11 -101 51 -127 79 -14 14 -28 26 -33 26
-15 0 -8 -65 9 -90 10 -14 15 -27 13 -30 -3 -3 22 -18 55 -35 121 -60 282 -35
342 54 27 40 31 116 8 147 -23 31 -19 34 45 34 71 0 77 -16 41 -111 -74 -195
-313 -268 -482 -148 -28 19 -46 26 -76 28 -18 1 -27 49 -13 66 10 12 8 25 -9
64 -11 28 -21 61 -21 75 l0 26 116 0 c63 0 124 -5 135 -10z m-916 -10 c3 -5 1
-10 -4 -10 -6 0 -11 5 -11 10 0 6 2 10 4 10 3 0 8 -4 11 -10z m135 -72 l0 -82
-54 53 c-75 74 -75 111 2 111 l52 0 0 -82z m335 37 c7 -44 35 -64 90 -65 6 0
22 -23 38 -50 l27 -50 -21 -41 c-11 -23 -19 -42 -17 -43 2 -1 28 -23 59 -49
l55 -46 38 26 38 25 57 -17 c64 -19 101 -74 101 -149 0 -45 -37 -52 -64 -11
-19 29 -66 34 -90 9 -23 -22 -20 -71 4 -84 15 -8 20 -21 20 -50 l0 -40 -52 0
c-77 1 -231 122 -236 186 -2 30 2 45 18 59 51 46 -10 110 -68 69 -14 -10 -38
-14 -69 -12 l-48 3 -3 77 c-2 67 0 80 18 98 25 25 25 45 0 70 -11 11 -27 20
-35 20 -19 0 -55 -36 -55 -55 0 -8 9 -23 20 -32 16 -14 20 -30 20 -82 l0 -64
-80 79 -80 78 0 93 0 93 154 0 155 0 6 -45z m1085 28 c0 -56 -48 -183 -69
-183 -40 0 -54 -49 -24 -82 35 -39 91 -3 80 52 -4 19 1 46 14 76 11 26 23 70
27 98 l7 51 63 3 62 3 0 -95 0 -94 -126 -124 c-69 -67 -127 -123 -129 -123 -9
0 -135 117 -135 125 0 5 14 25 31 45 l31 35 -27 40 -27 39 20 53 c17 45 25 55
58 68 22 8 41 18 42 22 8 18 102 9 102 -9z m290 -11 c0 -21 -15 -45 -55 -88
l-54 -59 -1 88 0 87 55 0 c54 0 55 -1 55 -28z m50 24 c0 -3 -4 -8 -10 -11 -5
-3 -10 -1 -10 4 0 6 5 11 10 11 6 0 10 -2 10 -4z m-892 -31 c98 -41 111 -120
24 -145 -72 -20 -72 -20 -72 75 0 47 2 85 5 85 3 0 22 -7 43 -15z m-868 -345
l-1 -175 -49 -53 -50 -53 0 277 0 278 50 -49 50 -49 0 -176z m1709 -6 l0 -277
-55 54 -54 53 0 170 0 170 52 53 c29 29 53 53 55 53 1 0 2 -124 2 -276z
m-1612 -71 l-77 -78 0 155 0 155 77 -78 78 -77 -78 -77z m1483 70 l0 -147 -75
74 -75 75 72 72 c40 40 74 73 75 73 2 0 3 -66 3 -147z m-469 65 c29 -16 41
-18 52 -10 10 9 28 -3 80 -56 l67 -68 -38 -37 -39 -38 -207 -5 -206 -4 0 43 0
44 62 7 c73 7 68 4 75 54 5 35 10 41 57 65 63 32 51 31 97 5z m-725 -69 c10
-17 -13 -36 -27 -22 -12 12 -4 33 11 33 5 0 12 -5 16 -11z m-117 -75 c39 -36
71 -69 71 -73 0 -4 -67 -7 -150 -6 l-149 0 72 73 c39 39 74 72 78 72 4 0 39
-30 78 -66z m1273 -59 c7 -9 -260 -25 -272 -16 -3 2 29 34 70 72 l74 69 60
-57 c33 -32 64 -62 68 -68z m-1206 90 c9 -8 14 -26 12 -41 -3 -25 -3 -25 -43
15 l-39 41 28 0 c15 0 34 -7 42 -15z m372 -113 c3 -16 -2 -22 -17 -22 -24 0
-35 15 -27 36 9 23 40 13 44 -14z m-277 -63 c35 -28 68 -55 74 -60 5 -5 -109
-9 -295 -9 l-304 0 54 55 54 54 140 3 c78 2 157 4 177 6 30 2 46 -6 100 -49z
m504 -18 l49 -51 -82 0 -82 0 0 54 c0 85 29 84 115 -3z m652 60 c4 -4 30 -30
58 -59 l49 -52 -289 0 -290 1 64 59 65 59 167 -1 c92 0 171 -4 176 -7z m-787
-56 l0 -55 -51 0 -52 0 6 36 c8 47 33 74 69 74 27 0 28 -1 28 -55z m326 0
c-73 -68 -79 -68 -146 0 l-54 55 129 0 130 -1 -59 -54z m-326 -176 c0 -50 -4
-89 -9 -87 -5 2 -50 42 -100 91 l-92 87 100 0 101 0 0 -91z m199 65 c-13 -14
-59 -58 -101 -96 l-78 -70 0 96 0 96 102 0 101 0 -24 -26z"/>
</g>
</svg>
